<svg xmlns="http://www.w3.org/2000/svg" xmlns:xlink="http://www.w3.org/1999/xlink" id="exportSvg" width="600" height="400"><defs/><g><g id="__svelte-dw-svg" clip-path="url(#rect-mask-__svelte-dw-_ODJIJaQ0cKgRIf49GWEJ)"><clipPath id="rect-mask-__svelte-dw-_ODJIJaQ0cKgRIf49GWEJ"><rect x="0" y="0" width="600" height="400"/></clipPath><g id="header-svg"><text transform="translate(0, 0)"><tspan fill="rgb(0,0,0)" x="0" y="22" style="font-family: Roboto; font-weight: 700; font-stretch: 100%; font-size: 22px;">Interest in "Lost Generation" surged after the assassination</tspan><tspan fill="rgb(0,0,0)" x="0" y="47" style="font-family: Roboto; font-weight: 700; font-stretch: 100%; font-size: 22px;">of the former Prime Minister Shinzo Abe</tspan></text><text transform="translate(0, 60)"><tspan fill="rgb(24,24,24)" x="0" y="14" style="font-family: Roboto; font-weight: 400; font-stretch: 100%; font-size: 14px;">Google search index for "ロスジェネ (Lost Generation )" in Japan</tspan></text></g><g id="chart-svg"><g id="svg-main-svg" clip-path="url(#rect-mask-svg-main-TQ1jG6CSzMJc-WoJBV0JT)" transform="translate(0.00000, 87.00000)"><clipPath id="rect-mask-svg-main-TQ1jG6CSzMJc-WoJBV0JT"><rect x="0" y="0" width="600" height="280"/></clipPath><g id="group-svg" transform="translate(31.4765625, 7)"><path d="M9.659007679982851,238L15.877251114210177,238L22.095494548437504,238L28.31373798266483,238L34.53198141689216,238L40.750224851119484,238L46.96846828534681,238L53.18671171957414,238L59.40495515380146,238L65.62319858802879,238L71.84144202225612,238L78.05968545648344,238L84.27792889071077,238L90.49617232493809,238L96.71441575916542,238L102.93265919339275,238L109.15090262762007,238L115.3691460618474,238L121.58738949607474,238L127.80563293030205,238L134.02387636452937,238L140.2421197987567,238L146.46036323298404,238L152.67860666721137,238L158.8968501014387,238L165.115093535666,238L171.33333696989334,238L177.55158040412067,238L183.769823838348,238L189.9880672725753,238L196.2063107068026,238L202.42455414102994,238L208.64279757525728,238L214.8610410094846,238L221.07928444371194,238L227.29752787793927,238L233.51577131216658,238L239.7340147463939,238L245.95225818062124,238L252.17050161484858,238L258.3887450490759,238L264.6069884833032,238L270.8252319175306,238L277.0434753517579,238L283.26171878598524,238L289.4799622202125,238L295.69820565443985,238L301.91644908866715,238L308.13469252289445,238L314.3529359571218,238L320.5711793913491,238L326.7894228255765,238L333.0076662598038,238L339.22590969403115,238L345.44415312825845,238L351.66239656248575,238L357.8806399967131,238L364.0988834309404,238L370.3171268651678,238L376.5353702993951,238L382.7536137336224,238L388.97185716784975,238L395.19010060207705,238L401.4083440363044,238L407.6265874705317,238L413.844830904759,238L420.0630743389864,238L426.2813177732137,238L432.49956120744105,238L438.71780464166835,238L444.93604807589566,238L451.154291510123,238L457.3725349443503,238L463.5907783785777,238L469.809021812805,238L476.0272652470323,238L482.24550868125965,238L488.46375211548695,238L494.6819955497143,238L500.9002389839416,238L507.1184824181689,238L513.3367258523963,238L519.5549692866236,238L525.7732127208509,238L531.9914561550783,238L538.2096995893056,238L544.4279430235329,238L550.6461864577602,238L556.8644298919876,238L556.8644298919876,209.44L550.6461864577602,180.88L544.4279430235329,238L538.2096995893056,238L531.9914561550783,195.16L525.7732127208509,138.04000000000002L519.5549692866236,180.88L513.3367258523963,152.32L507.1184824181689,166.60000000000002L500.9002389839416,149.94L494.6819955497143,0L488.46375211548695,238L482.24550868125965,223.72L476.0272652470323,223.72L469.809021812805,223.72L463.5907783785777,195.16L457.3725349443503,223.72L451.154291510123,238L444.93604807589566,238L438.71780464166835,238L432.49956120744105,238L426.2813177732137,223.72L420.0630743389864,178.5L413.844830904759,238L407.6265874705317,178.5L401.4083440363044,223.72L395.19010060207705,223.72L388.97185716784975,195.16L382.7536137336224,223.72L376.5353702993951,209.44L370.3171268651678,209.44L364.0988834309404,223.72L357.8806399967131,223.72L351.66239656248575,223.72L345.44415312825845,238L339.22590969403115,209.44L333.0076662598038,223.72L326.7894228255765,209.44L320.5711793913491,209.44L314.3529359571218,223.72L308.13469252289445,223.72L301.91644908866715,209.44L295.69820565443985,209.44L289.4799622202125,195.16L283.26171878598524,223.72L277.0434753517579,178.5L270.8252319175306,192.78L264.6069884833032,223.72L258.3887450490759,209.44L252.17050161484858,209.44L245.95225818062124,223.72L239.7340147463939,207.06L233.51577131216658,223.72L227.29752787793927,180.88L221.07928444371194,238L214.8610410094846,178.5L208.64279757525728,209.44L202.42455414102994,180.88L196.2063107068026,192.78L189.9880672725753,178.5L183.769823838348,209.44L177.55158040412067,192.78L171.33333696989334,223.72L165.115093535666,238L158.8968501014387,178.5L152.67860666721137,223.72L146.46036323298404,223.72L140.2421197987567,209.44L134.02387636452937,238L127.80563293030205,211.82L121.58738949607474,211.82L115.3691460618474,238L109.15090262762007,226.1L102.93265919339275,209.44L96.71441575916542,211.82L90.49617232493809,211.82L84.27792889071077,223.72L78.05968545648344,211.82L71.84144202225612,226.1L65.62319858802879,214.2L59.40495515380146,226.1L53.18671171957414,238L46.96846828534681,238L40.750224851119484,199.92000000000002L34.53198141689216,209.44L28.31373798266483,214.2L22.095494548437504,226.1L15.877251114210177,226.1L9.659007679982851,214.2Z" style="mix-blend-mode: normal; fill: rgb(255, 202, 118); opacity: 0.3;"/><g id="lines-svg"><g id="value-svg"><path d="M9.659007679982851,214.2L15.877251114210177,226.1L22.095494548437504,226.1L28.31373798266483,214.2L34.53198141689216,209.44L40.750224851119484,199.92000000000002L46.96846828534681,238L53.18671171957414,238L59.40495515380146,226.1L65.62319858802879,214.2L71.84144202225612,226.1L78.05968545648344,211.82L84.27792889071077,223.72L90.49617232493809,211.82L96.71441575916542,211.82L102.93265919339275,209.44L109.15090262762007,226.1L115.3691460618474,238L121.58738949607474,211.82L127.80563293030205,211.82L134.02387636452937,238L140.2421197987567,209.44L146.46036323298404,223.72L152.67860666721137,223.72L158.8968501014387,178.5L165.115093535666,238L171.33333696989334,223.72L177.55158040412067,192.78L183.769823838348,209.44L189.9880672725753,178.5L196.2063107068026,192.78L202.42455414102994,180.88L208.64279757525728,209.44L214.8610410094846,178.5L221.07928444371194,238L227.29752787793927,180.88L233.51577131216658,223.72L239.7340147463939,207.06L245.95225818062124,223.72L252.17050161484858,209.44L258.3887450490759,209.44L264.6069884833032,223.72L270.8252319175306,192.78L277.0434753517579,178.5L283.26171878598524,223.72L289.4799622202125,195.16L295.69820565443985,209.44L301.91644908866715,209.44L308.13469252289445,223.72L314.3529359571218,223.72L320.5711793913491,209.44L326.7894228255765,209.44L333.0076662598038,223.72L339.22590969403115,209.44L345.44415312825845,238L351.66239656248575,223.72L357.8806399967131,223.72L364.0988834309404,223.72L370.3171268651678,209.44L376.5353702993951,209.44L382.7536137336224,223.72L388.97185716784975,195.16L395.19010060207705,223.72L401.4083440363044,223.72L407.6265874705317,178.5L413.844830904759,238L420.0630743389864,178.5L426.2813177732137,223.72L432.49956120744105,238L438.71780464166835,238L444.93604807589566,238L451.154291510123,238L457.3725349443503,223.72L463.5907783785777,195.16L469.809021812805,223.72L476.0272652470323,223.72L482.24550868125965,223.72L488.46375211548695,238L494.6819955497143,0L500.9002389839416,149.94L507.1184824181689,166.60000000000002L513.3367258523963,152.32L519.5549692866236,180.88L525.7732127208509,138.04000000000002L531.9914561550783,195.16L538.2096995893056,238L544.4279430235329,238L550.6461864577602,180.88L556.8644298919876,209.44" stroke="rgb(250,140,0)" id="value" style="mix-blend-mode: normal; fill: none; stroke-width: 2; stroke-linejoin: round; stroke-linecap: round; stroke: rgb(250, 140, 0);"/></g></g><g id="line-symbols-svg"/><g id="x-tick-labels-svg grid-x-svg date-axis-svg datawrapper-Thzyd-63wp0p-svg" transform="translate(0, 243)"><text transform="translate(28.31373798266483, 12) translate(-9.31250, 0.00000) translate(9.3125, 0)" style="text-anchor: middle;"><tspan fill="rgb(116, 116, 116)" style="font-family: Roboto; font-weight: 400; font-stretch: 100%; font-size: 12px;" x="0" dominant-baseline="auto" y="0">24</tspan><tspan fill="rgb(116, 116, 116)" style="font-family: Roboto; font-weight: 400; font-stretch: 100%; font-size: 12px;" x="0" dominant-baseline="auto" y="15">Apr</tspan></text><text transform="translate(71.84144202225612, 12) translate(-11.45801, 0.00000) translate(11.4580078125, 0)" style="text-anchor: middle;"><tspan fill="rgb(116, 116, 116)" style="font-family: Roboto; font-weight: 400; font-stretch: 100%; font-size: 12px;" x="0" dominant-baseline="auto" y="0">01</tspan><tspan fill="rgb(116, 116, 116)" style="font-family: Roboto; font-weight: 400; font-stretch: 100%; font-size: 12px;" x="0" dominant-baseline="auto" y="15">May</tspan></text><text transform="translate(115.3691460618474, 12) translate(-6.86914, 0.00000) translate(6.869140625, 0)" style="text-anchor: middle;"><tspan fill="rgb(116, 116, 116)" style="font-family: Roboto; font-weight: 400; font-stretch: 100%; font-size: 12px;" x="0" dominant-baseline="auto" y="0">08</tspan></text><text transform="translate(158.8968501014387, 12) translate(-6.86914, 0.00000) translate(6.869140625, 0)" style="text-anchor: middle;"><tspan fill="rgb(116, 116, 116)" style="font-family: Roboto; font-weight: 400; font-stretch: 100%; font-size: 12px;" x="0" dominant-baseline="auto" y="0">15</tspan></text><text transform="translate(202.42455414102994, 12) translate(-6.86914, 0.00000) translate(6.869140625, 0)" style="text-anchor: middle;"><tspan fill="rgb(116, 116, 116)" style="font-family: Roboto; font-weight: 400; font-stretch: 100%; font-size: 12px;" x="0" dominant-baseline="auto" y="0">22</tspan></text><text transform="translate(245.95225818062124, 12) translate(-6.74219, 0.00000) translate(6.7421875, 0)" style="text-anchor: middle;"><tspan fill="rgb(116, 116, 116)" style="font-family: Roboto; font-weight: 400; font-stretch: 100%; font-size: 12px;" x="0" dominant-baseline="auto" y="0">29</tspan></text><text transform="translate(289.4799622202125, 12) translate(-9.92969, 0.00000) translate(9.9296875, 0)" style="text-anchor: middle;"><tspan fill="rgb(116, 116, 116)" style="font-family: Roboto; font-weight: 400; font-stretch: 100%; font-size: 12px;" x="0" dominant-baseline="auto" y="0">05</tspan><tspan fill="rgb(116, 116, 116)" style="font-family: Roboto; font-weight: 400; font-stretch: 100%; font-size: 12px;" x="0" dominant-baseline="auto" y="15">Jun</tspan></text><text transform="translate(333.0076662598038, 12) translate(-6.86914, 0.00000) translate(6.869140625, 0)" style="text-anchor: middle;"><tspan fill="rgb(116, 116, 116)" style="font-family: Roboto; font-weight: 400; font-stretch: 100%; font-size: 12px;" x="0" dominant-baseline="auto" y="0">12</tspan></text><text transform="translate(376.5353702993951, 12) translate(-6.74219, 0.00000) translate(6.7421875, 0)" style="text-anchor: middle;"><tspan fill="rgb(116, 116, 116)" style="font-family: Roboto; font-weight: 400; font-stretch: 100%; font-size: 12px;" x="0" dominant-baseline="auto" y="0">19</tspan></text><text transform="translate(420.0630743389864, 12) translate(-6.86914, 0.00000) translate(6.869140625, 0)" style="text-anchor: middle;"><tspan fill="rgb(116, 116, 116)" style="font-family: Roboto; font-weight: 400; font-stretch: 100%; font-size: 12px;" x="0" dominant-baseline="auto" y="0">26</tspan></text><text transform="translate(463.5907783785777, 12) translate(-8.07813, 0.00000) translate(8.078125, 0)" style="text-anchor: middle;"><tspan fill="rgb(116, 116, 116)" style="font-family: Roboto; font-weight: 400; font-stretch: 100%; font-size: 12px;" x="0" dominant-baseline="auto" y="0">03</tspan><tspan fill="rgb(116, 116, 116)" style="font-family: Roboto; font-weight: 400; font-stretch: 100%; font-size: 12px;" x="0" dominant-baseline="auto" y="15">Jul</tspan></text><text transform="translate(507.1184824181689, 12) translate(-6.86914, 0.00000) translate(6.869140625, 0)" style="text-anchor: middle;"><tspan fill="rgb(116, 116, 116)" style="font-family: Roboto; font-weight: 400; font-stretch: 100%; font-size: 12px;" x="0" dominant-baseline="auto" y="0">10</tspan></text><text transform="translate(550.6461864577602, 12) translate(-6.86914, 0.00000) translate(6.869140625, 0)" style="text-anchor: middle;"><tspan fill="rgb(116, 116, 116)" style="font-family: Roboto; font-weight: 400; font-stretch: 100%; font-size: 12px;" x="0" dominant-baseline="auto" y="0">17</tspan></text></g><g id="x-base-lines-svg grid-x-svg datawrapper-Thzyd-1io9s9d-svg"/><g id="y-tick-lines-svg grid-y-svg datawrapper-Thzyd-1jidnk8-svg" transform="translate(0, 0)"><line x1="0" x2="-5" y1="0" y2="0" transform="translate(0, 238)" style="fill: none; stroke-width: 1; stroke-linejoin: miter; stroke-linecap: butt; stroke: rgb(24, 24, 24);"/><line x1="0" x2="-5" y1="0" y2="0" transform="translate(0, 190.4)" style="fill: none; stroke-width: 1; stroke-linejoin: miter; stroke-linecap: butt; stroke: rgb(24, 24, 24);"/><line x1="0" x2="-5" y1="0" y2="0" transform="translate(0, 142.8)" style="fill: none; stroke-width: 1; stroke-linejoin: miter; stroke-linecap: butt; stroke: rgb(24, 24, 24);"/><line x1="0" x2="-5" y1="0" y2="0" transform="translate(0, 95.20000000000002)" style="fill: none; stroke-width: 1; stroke-linejoin: miter; stroke-linecap: butt; stroke: rgb(24, 24, 24);"/><line x1="0" x2="-5" y1="0" y2="0" transform="translate(0, 47.599999999999994)" style="fill: none; stroke-width: 1; stroke-linejoin: miter; stroke-linecap: butt; stroke: rgb(24, 24, 24);"/><line x1="0" x2="-5" y1="0" y2="0" transform="translate(0, 0)" style="fill: none; stroke-width: 1; stroke-linejoin: miter; stroke-linecap: butt; stroke: rgb(24, 24, 24);"/></g><g id="y-tick-labels-svg grid-y-svg number-axis-svg datawrapper-Thzyd-yhj5g2-svg" transform="translate(-10, 0)"><text transform="translate(0, 242) translate(-7.00000, 0.00000) translate(7, 0)" style="text-anchor: end;"><tspan fill="rgb(162, 162, 162)" style="font-family: Roboto; font-weight: 400; font-stretch: 100%; font-size: 12px;" x="0" dominant-baseline="auto" y="0">0</tspan></text><text transform="translate(0, 194.4) translate(-13.73828, 0.00000) translate(13.73828125, 0)" style="text-anchor: end;"><tspan fill="rgb(162, 162, 162)" style="font-family: Roboto; font-weight: 400; font-stretch: 100%; font-size: 12px;" x="0" dominant-baseline="auto" y="0">20</tspan></text><text transform="translate(0, 146.8) translate(-13.73828, 0.00000) translate(13.73828125, 0)" style="text-anchor: end;"><tspan fill="rgb(162, 162, 162)" style="font-family: Roboto; font-weight: 400; font-stretch: 100%; font-size: 12px;" x="0" dominant-baseline="auto" y="0">40</tspan></text><text transform="translate(0, 99.20000000000002) translate(-13.73828, 0.00000) translate(13.73828125, 0)" style="text-anchor: end;"><tspan fill="rgb(162, 162, 162)" style="font-family: Roboto; font-weight: 400; font-stretch: 100%; font-size: 12px;" x="0" dominant-baseline="auto" y="0">60</tspan></text><text transform="translate(0, 51.599999999999994) translate(-13.73828, 0.00000) translate(13.73828125, 0)" style="text-anchor: end;"><tspan fill="rgb(162, 162, 162)" style="font-family: Roboto; font-weight: 400; font-stretch: 100%; font-size: 12px;" x="0" dominant-baseline="auto" y="0">80</tspan></text><text transform="translate(0, 4) translate(-20.47656, 0.00000) translate(20.4765625, 0)" style="text-anchor: end;"><tspan fill="rgb(162, 162, 162)" style="font-family: Roboto; font-weight: 400; font-stretch: 100%; font-size: 12px;" x="0" dominant-baseline="auto" y="0">100</tspan></text></g><g id="y-base-lines-svg grid-y-svg datawrapper-Thzyd-1io9s9d-svg"><line x1="566.5234375" x2="0" y1="0" y2="0" transform="translate(0, 238)" style="fill: none; stroke-width: 1; stroke-linejoin: miter; stroke-linecap: square; stroke: rgb(24, 24, 24);"/></g></g></g><g id="svelte-1k23k3-svg" transform="translate(526.46875, 96.00000)"><g id="callout-line-svg"><path d="M -46.00000000000001,46.00000000000001 L -3.5355339059327378,3.5355339059327373" stroke="rgb(24,24,24)" style="mix-blend-mode: normal; fill: none; stroke-width: 1; stroke-linejoin: miter; stroke-linecap: butt; stroke: rgb(24, 24, 24);"/><path d="M-4.75,-3.75 L 0,0 L -4.75,3.75" stroke="rgb(24,24,24)" transform="translate(-3.535533905029297, 3.535533905029297) rotate(-45) scale(1)" style="mix-blend-mode: normal; fill: none; stroke-width: 1; stroke-linejoin: miter; stroke-linecap: butt; stroke: rgb(24, 24, 24);"/></g></g><text transform="translate(476.40625, 146)" style="text-anchor: end;"><tspan fill="rgb(24,24,24)" x="0" y="14" style="font-family: Roboto; font-weight: 700; font-stretch: 100%; font-size: 14px;">July 8</tspan><tspan fill="rgb(24,24,24)" x="0" y="30.796875" style="font-family: Roboto; font-weight: 700; font-stretch: 100%; font-size: 14px;">Japan's former</tspan><tspan fill="rgb(24,24,24)" x="0" y="47.59375" style="font-family: Roboto; font-weight: 700; font-stretch: 100%; font-size: 14px;">PM shot dead</tspan></text><g id="tooltip-layer-svg" clip-path="url(#rect-mask-tooltip-layer-7tp7vL9_wr2p09zO67a0i)" transform="translate(0.00000, 87.00000)"><clipPath id="rect-mask-tooltip-layer-7tp7vL9_wr2p09zO67a0i"><rect x="0" y="0" width="600" height="280"/></clipPath><g id="group-svg" transform="translate(31.4765625, 7)"/></g></g><g id="footer-svg"><text transform="translate(0, 387)"><tspan fill="rgb(136,136,136)" x="0" y="11" style="font-family: Roboto; font-weight: 400; font-stretch: 100%; font-size: 11px;">Source</tspan><tspan fill="rgb(136,136,136)" style="font-family: Roboto; font-weight: 400; font-stretch: 100%; font-size: 11px;">:</tspan><tspan fill="rgb(136,136,136)" style="font-family: Roboto; font-weight: 400; font-stretch: 100%; font-size: 11px;">​ ​</tspan><tspan fill="rgb(136,136,136)" style="font-family: Roboto; font-weight: 400; font-stretch: 100%; font-size: 11px;">GoogleTrends</tspan><tspan fill="rgb(136,136,136)" style="font-family: Roboto; font-weight: 400; font-stretch: 100%; font-size: 11px;">​ ​</tspan><tspan fill="rgb(136,136,136)" style="font-family: Roboto; font-weight: 400; font-stretch: 100%; font-size: 11px;">•</tspan><tspan fill="rgb(136,136,136)" style="font-family: Roboto; font-weight: 400; font-stretch: 100%; font-size: 11px;">​ ​</tspan><tspan fill="rgb(136,136,136)" style="font-family: Roboto; font-weight: 400; font-stretch: 100%; font-size: 11px;">Created with</tspan><tspan fill="rgb(136,136,136)" style="font-family: Roboto; font-weight: 400; font-stretch: 100%; font-size: 11px;">​ ​</tspan><tspan fill="rgb(136,136,136)" style="font-family: Roboto; font-weight: 400; font-stretch: 100%; font-size: 11px;">Datawrapper</tspan></text></g></g></g></svg>